<?xml version="1.0" standalone="no"?>
<!DOCTYPE svg PUBLIC "-//W3C//DTD SVG 20010904//EN"
 "http://www.w3.org/TR/2001/REC-SVG-20010904/DTD/svg10.dtd">
<svg version="1.0" xmlns="http://www.w3.org/2000/svg"
 width="836.000000pt" height="836.000000pt" viewBox="0 0 836.000000 836.000000"
 preserveAspectRatio="xMidYMid meet">
<metadata>
Created by potrace 1.14, written by Peter Selinger 2001-2017
</metadata>
<g transform="translate(0.000000,836.000000) scale(0.100000,-0.100000)"
fill="#000000" stroke="none">
<path d="M3905 8353 c-711 -47 -1445 -313 -2040 -738 -346 -247 -694 -593
-944 -939 -772 -1068 -1004 -2463 -620 -3735 128 -422 335 -851 581 -1201 244
-346 565 -681 883 -921 868 -656 1927 -932 2985 -778 731 106 1423 417 2000
902 163 136 427 407 563 577 857 1069 1144 2516 763 3843 -479 1667 -1907
2855 -3590 2987 -118 9 -461 11 -581 3z m-55 -2739 l0 -55 -52 3 -53 3 -3 53
-3 52 55 0 56 0 0 -56z m3430 -74 l0 -50 -50 0 -50 0 0 50 0 50 50 0 50 0 0
-50z m-2690 -140 l0 -50 -55 0 -55 0 0 50 0 50 55 0 55 0 0 -50z m1798 -2 l-3
-53 -52 -3 -53 -3 0 55 0 56 56 0 55 0 -3 -52z m892 -43 l0 -55 -50 0 -50 0 0
55 0 55 50 0 50 0 0 -55z m-3430 -55 l0 -50 -55 0 -55 0 0 50 0 50 55 0 55 0
0 -50z m3430 -135 l0 -55 -50 0 -50 0 0 55 0 55 50 0 50 0 0 -55z m190 0 l0
-55 -55 0 -55 0 0 55 0 55 55 0 55 0 0 -55z m-2882 -27 l-3 -63 -50 0 -50 0
-3 63 -3 62 56 0 56 0 -3 -62z m-738 -113 l0 -55 -55 0 -55 0 0 48 c0 27 3 52
7 55 3 4 28 7 55 7 l48 0 0 -55z m2535 0 l0 -50 -52 -3 -53 -3 0 56 0 56 53
-3 52 -3 0 -50z m895 -110 l0 -55 -50 0 -50 0 0 55 0 55 50 0 50 0 0 -55z
m190 0 l0 -55 -55 0 -55 0 0 55 0 55 55 0 55 0 0 -55z m-2700 -50 l0 -55 -50
0 -50 0 0 55 0 55 50 0 50 0 0 -55z m-1200 -30 l0 -55 -50 0 -50 0 0 55 0 55
50 0 50 0 0 -55z m2480 -1 l0 -55 -52 3 -53 3 -3 53 -3 52 55 0 56 0 0 -56z
m-790 -79 l0 -55 -50 0 -50 0 0 55 0 55 50 0 50 0 0 -55z m823 -102 c77 -18
171 -73 210 -125 36 -47 66 -117 73 -172 l7 -46 -101 0 -100 0 -7 40 c-9 52
-54 112 -101 136 -60 29 -208 32 -268 6 -56 -25 -86 -70 -86 -130 0 -55 21
-95 63 -121 18 -11 121 -43 228 -72 106 -28 211 -60 231 -70 57 -29 101 -72
134 -131 26 -48 29 -62 29 -143 0 -104 -19 -156 -80 -224 -142 -157 -513 -177
-702 -38 -83 61 -137 159 -144 262 l-4 50 95 3 96 3 12 -61 c10 -48 22 -71 53
-105 57 -62 110 -80 234 -80 87 0 107 3 150 25 68 34 95 77 95 151 0 50 -4 63
-30 92 -36 41 -66 53 -289 112 -189 50 -232 68 -290 121 -60 54 -84 121 -79
219 7 126 60 205 176 264 116 58 242 69 395 34z m667 -203 l0 -230 265 0 265
0 0 230 0 230 100 0 100 0 -2 -602 -3 -603 -97 -3 -98 -3 -2 288 -3 288 -262
3 -263 2 0 -40 0 -40 -100 0 -100 0 0 355 0 355 100 0 100 0 0 -230z m-5090
155 l0 -45 -320 0 -320 0 0 -210 0 -210 288 -2 287 -3 3 -42 3 -43 -290 0
-291 0 0 -235 0 -235 325 0 325 0 0 -45 0 -45 -380 0 -380 0 0 580 0 580 375
0 375 0 0 -45z m950 -535 l0 -580 -45 0 -45 0 0 70 c0 67 -12 91 -25 50 -10
-32 -94 -98 -154 -121 -46 -17 -71 -20 -141 -17 -139 7 -222 62 -280 183 -39
82 -49 133 -50 245 0 274 134 443 354 444 101 0 164 -24 236 -91 l60 -55 0
226 0 226 45 0 45 0 0 -580z m1473 555 c174 -37 292 -153 353 -350 15 -47 19
-92 19 -210 0 -158 -16 -239 -67 -339 -27 -53 -112 -142 -167 -174 -93 -54
-149 -62 -458 -62 l-283 0 0 280 0 280 95 0 95 0 2 -197 3 -198 170 0 c165 0
172 1 230 28 145 68 192 177 183 419 -6 146 -28 215 -89 278 -73 75 -179 103
-379 98 l-115 -3 -3 -162 -2 -163 -95 0 -95 0 0 245 0 245 268 0 c193 0 286
-4 335 -15z m505 -132 l3 -53 -55 0 -56 0 0 48 c0 27 3 52 7 56 4 4 28 6 53 4
l45 -3 3 -52z m182 2 l0 -55 -50 0 -50 0 0 55 0 55 50 0 50 0 0 -55z m385
-141 c27 -11 70 -39 96 -64 63 -61 69 -94 69 -388 0 -172 3 -241 12 -250 7 -7
27 -12 45 -12 l33 0 0 -59 c0 -68 -2 -69 -95 -78 -80 -7 -130 13 -150 61 l-15
35 -57 -35 c-80 -48 -123 -59 -234 -59 -86 0 -101 3 -154 30 -88 45 -119 94
-123 195 -5 99 17 155 79 200 53 38 111 55 261 75 182 25 212 38 224 100 13
71 -44 123 -145 132 -102 9 -192 -33 -206 -97 l-7 -30 -90 0 -91 0 7 43 c24
150 164 230 386 223 71 -2 121 -10 155 -22z m-1967 -256 l3 -48 -200 0 -201 0
0 50 0 50 198 -2 197 -3 3 -47z m282 2 l0 -50 -45 0 -45 0 0 50 0 50 45 0 45
0 0 -50z m420 0 l0 -50 -105 0 -105 0 0 50 0 50 105 0 105 0 0 -50z m3075
-210 l0 -45 -105 0 -105 0 -3 48 -3 48 108 -3 108 -3 0 -45z m-225 -250 l0
-171 -96 3 -95 3 -2 168 -2 167 98 0 97 0 0 -170z m-2252 -222 l-3 -53 -52 -3
-53 -3 0 55 0 56 56 0 55 0 -3 -52z m722 -58 l0 -50 -55 0 -55 0 0 50 0 50 55
0 55 0 0 -50z m-1610 -70 l0 -50 -50 0 -50 0 0 50 0 50 50 0 50 0 0 -50z
m2578 -17 l3 -53 -50 0 -51 0 0 56 0 55 48 -3 47 -3 3 -52z m1292 -18 l0 -55
-55 0 -55 0 0 55 0 55 55 0 55 0 0 -55z m-3170 -25 l0 -50 -55 0 -55 0 0 50 0
50 55 0 55 0 0 -50z m2780 0 l0 -50 -55 0 -55 0 0 50 0 50 55 0 55 0 0 -50z
m-1672 -92 l-3 -53 -50 0 -50 0 -3 53 -3 52 56 0 56 0 -3 -52z m-1808 -33 l0
-55 -50 0 -50 0 0 55 0 55 50 0 50 0 0 -55z m2580 -20 l0 -55 -50 0 -50 0 0
55 0 55 50 0 50 0 0 -55z m-1690 -95 l0 -50 -55 0 -55 0 0 50 0 50 55 0 55 0
0 -50z"/>
<path d="M2135 4246 c-51 -22 -95 -66 -124 -125 -42 -83 -54 -150 -49 -256 8
-145 60 -239 160 -289 93 -47 206 -32 283 36 106 94 145 301 85 459 -25 70
-90 146 -145 170 -48 22 -165 25 -210 5z"/>
<path d="M5089 3924 c-20 -7 -74 -18 -120 -24 -160 -20 -209 -54 -209 -142 0
-62 29 -92 107 -109 98 -22 215 17 250 84 18 35 31 191 17 199 -5 2 -25 -1
-45 -8z"/>
</g>
</svg>
